<?xml version="1.0" standalone="no"?>
<!DOCTYPE svg PUBLIC "-//W3C//DTD SVG 20010904//EN" "http://www.w3.org/TR/2001/REC-SVG-20010904/DTD/svg10.dtd">
<!-- Created using Krita: https://krita.org -->
<svg xmlns="http://www.w3.org/2000/svg" 
    xmlns:xlink="http://www.w3.org/1999/xlink"
    xmlns:krita="http://krita.org/namespaces/svg/krita"
    xmlns:sodipodi="http://sodipodi.sourceforge.net/DTD/sodipodi-0.dtd"
    width="1339.92pt"
    height="1339.92pt"
    viewBox="0 0 1339.92 1339.92">
<defs/>
<path id="shape1" transform="matrix(4.46174045244828 0 0 4.46174045244828 296.528936350554 876.032197373311)" fill="none" stroke="#000000" stroke-width="0.7152" stroke-linecap="square" stroke-linejoin="bevel" d="M0 0.344149C0 0.229433 0 0.114716 0 0" sodipodi:nodetypes="cc"/><path id="shape3" transform="matrix(4.46174045244828 0 0 4.46174045244828 304.206459267648 854.535133205448)" fill="none" stroke="#000000" stroke-width="0.7152" stroke-linecap="square" stroke-linejoin="bevel" d="M0 0C0.114716 0 0.229433 0 0.344149 0" sodipodi:nodetypes="cc"/><path id="shape0232" transform="matrix(9.78450184984736 0 0 9.78450184984736 298.460128663419 672.734859592631)" fill="none" stroke="#ffffff" stroke-width="3.36" stroke-linecap="square" stroke-linejoin="bevel" d="M2.16217 23.1141C-5.71845 11.3069 10.0428 4.31946 15.8957 10.5748C23.2087 -5.04429 41.1967 -2.16396 46.0383 11.401C61.5172 5.49477 59.9785 20.6608 55.9021 24.0098" sodipodi:nodetypes="cccc"/><path id="shape42" transform="matrix(23.8509533866152 0 0 23.8509533866152 626.786210101546 468.224690876944)" fill="none" stroke="#ffb100" stroke-width="1.2" stroke-linecap="square" stroke-linejoin="miter" stroke-miterlimit="2" d="M0 6.20474C0.827628 0.284863 7.36059 -1.25443 11.5803 0.971786C15.6999 3.14515 17.5852 8.95745 12.2102 13.715" sodipodi:nodetypes="ccc"/><path id="shape51" transform="matrix(23.8509533866152 0 0 23.8509533866152 533.229837197399 470.383442531931)" fill="none" stroke="#ffb100" stroke-width="0.4632" stroke-linecap="square" stroke-linejoin="miter" stroke-miterlimit="2" d="M2.41334 1.91056L0 0" sodipodi:nodetypes="cc"/><path id="shape61" transform="matrix(23.1314780407584 -5.81400903855549 5.81400903855549 23.1314780407584 736.079389393343 376.483386465428)" fill="none" stroke="#ffb100" stroke-width="0.4632" stroke-linecap="square" stroke-linejoin="miter" stroke-miterlimit="2" d="M0.100556 2.11167L0 0" sodipodi:nodetypes="cc"/><path id="shape71" transform="matrix(23.8509533866152 0 0 23.8509533866152 932.024010384717 388.839960339782)" fill="none" stroke="#ffb100" stroke-width="0.4632" stroke-linecap="square" stroke-linejoin="miter" stroke-miterlimit="2" d="M0 2.31278L1.30723 0" sodipodi:nodetypes="cc"/><path id="shape81" transform="matrix(23.8509533866152 0 0 23.8509533866152 1031.77324308192 632.688574821868)" fill="none" stroke="#ffb100" stroke-width="0.4632" stroke-linecap="square" stroke-linejoin="miter" stroke-miterlimit="2" d="M0 0.100556L2.31278 0" sodipodi:nodetypes="cc"/><path id="shape91" transform="matrix(23.8509533866152 0 0 23.8509533866152 982.017113246882 811.409365733251)" fill="none" stroke="#ffb100" stroke-width="0.4632" stroke-linecap="square" stroke-linejoin="miter" stroke-miterlimit="2" d="M0 0L1.81001 1.70945" sodipodi:nodetypes="cc"/>
</svg>
