<?xml version="1.0" standalone="no"?>
<!DOCTYPE svg PUBLIC "-//W3C//DTD SVG 20010904//EN" "http://www.w3.org/TR/2001/REC-SVG-20010904/DTD/svg10.dtd">
<!-- Created using Krita: https://krita.org -->
<svg xmlns="http://www.w3.org/2000/svg" 
    xmlns:xlink="http://www.w3.org/1999/xlink"
    xmlns:krita="http://krita.org/namespaces/svg/krita"
    xmlns:sodipodi="http://sodipodi.sourceforge.net/DTD/sodipodi-0.dtd"
    width="77.76pt"
    height="77.76pt"
    viewBox="0 0 77.76 77.76">
<defs/>
<path id="shape1" transform="matrix(0.387151475245921 0 0 0.387151475245921 -69.3051726933391 -225.107482149504)" fill="none" stroke="#000000" stroke-width="0.7152" stroke-linecap="square" stroke-linejoin="bevel" d="M0 0.344149C0 0.229433 0 0.114716 0 0" sodipodi:nodetypes="cc"/><path id="shape3" transform="matrix(0.387151475245921 0 0 0.387151475245921 -68.6389832645129 -226.972812550218)" fill="none" stroke="#000000" stroke-width="0.7152" stroke-linecap="square" stroke-linejoin="bevel" d="M0 0C0.114716 0 0.229433 0 0.344149 0" sodipodi:nodetypes="cc"/><path id="shape0232" transform="matrix(0.849014945196156 0 0 0.849014945196156 -69.1376004284623 -242.747877209277)" fill="none" stroke="#ffffff" stroke-width="3.36" stroke-linecap="square" stroke-linejoin="bevel" d="M2.16217 23.1141C-5.71845 11.3069 10.0428 4.31946 15.8957 10.5748C23.2087 -5.04429 41.1967 -2.16396 46.0383 11.401C61.5172 5.49477 59.9785 20.6608 55.9021 24.0098" sodipodi:nodetypes="cccc"/><path id="shape42" transform="matrix(2.06958066881342 0 0 2.06958066881341 -40.648285968063 -260.493511309895)" fill="none" stroke="#ffb100" stroke-width="1.2" stroke-linecap="square" stroke-linejoin="miter" stroke-miterlimit="2" d="M0 6.20474C0.827628 0.284863 7.36059 -1.25443 11.5803 0.971786C15.6999 3.14515 17.5852 8.95745 12.2102 13.715" sodipodi:nodetypes="ccc"/><path id="shape51" transform="matrix(2.06958066881342 0 0 2.06958066881341 -48.7663036283289 -260.306193401822)" fill="none" stroke="#ffb100" stroke-width="0.4632" stroke-linecap="square" stroke-linejoin="miter" stroke-miterlimit="2" d="M2.41334 1.91056L0 0" sodipodi:nodetypes="cc"/><path id="shape61" transform="matrix(2.00715078421565 -0.50448971659361 0.50448971659361 2.00715078421564 -31.1647635516217 -268.454032931993)" fill="none" stroke="#ffb100" stroke-width="0.4632" stroke-linecap="square" stroke-linejoin="miter" stroke-miterlimit="2" d="M0.100556 2.11167L0 0" sodipodi:nodetypes="cc"/><path id="shape71" transform="matrix(2.06958066881342 0 0 2.06958066881341 -14.1623740375283 -267.381835690708)" fill="none" stroke="#ffb100" stroke-width="0.4632" stroke-linecap="square" stroke-linejoin="miter" stroke-miterlimit="2" d="M0 2.31278L1.30723 0" sodipodi:nodetypes="cc"/><path id="shape81" transform="matrix(2.06958066881342 0 0 2.06958066881341 -5.50699324948198 -246.222749491149)" fill="none" stroke="#ffb100" stroke-width="0.4632" stroke-linecap="square" stroke-linejoin="miter" stroke-miterlimit="2" d="M0 0.100556L2.31278 0" sodipodi:nodetypes="cc"/><path id="shape91" transform="matrix(2.06958066881342 0 0 2.06958066881341 -9.82440240258307 -230.714895864098)" fill="none" stroke="#ffb100" stroke-width="0.4632" stroke-linecap="square" stroke-linejoin="miter" stroke-miterlimit="2" d="M0 0L1.81001 1.70945" sodipodi:nodetypes="cc"/>
</svg>
